HIERARCHY
ROOT Hips
{
	OFFSET 0.000000 0.000000 0.000000
	CHANNELS 6 Xposition Yposition Zposition Yrotation Xrotation Zrotation
	JOINT Chest
	{
		OFFSET 0.000000 -0.009281 11.569106
		CHANNELS 3 Yrotation Xrotation Zrotation
		JOINT Chest2
		{
			OFFSET -0.000000 0.016865 9.269641
			CHANNELS 3 Yrotation Xrotation Zrotation
			JOINT Chest3
			{
				OFFSET -0.000000 0.000001 8.374491
				CHANNELS 3 Yrotation Xrotation Zrotation
				JOINT Chest4
				{
					OFFSET -0.000000 0.000001 8.374493
					CHANNELS 3 Yrotation Xrotation Zrotation
					JOINT Neck
					{
						OFFSET -0.000000 0.000002 12.152554
						CHANNELS 3 Yrotation Xrotation Zrotation
						JOINT Head
						{
							OFFSET -0.000000 0.040101 7.802319
							CHANNELS 3 Yrotation Xrotation Zrotation
							End Site
							{
								OFFSET -0.000000 0.020947 14.853096
							}
						}
					}
					JOINT RightCollar
					{
						OFFSET 2.894404 0.000001 6.791374
						CHANNELS 3 Yrotation Xrotation Zrotation
						JOINT RightShoulder
						{
							OFFSET 13.574684 0.000001 0.000000
							CHANNELS 3 Yrotation Xrotation Zrotation
							JOINT RightElbow
							{
								OFFSET 23.923903 0.000002 0.000000
								CHANNELS 3 Yrotation Xrotation Zrotation
								JOINT RightWrist
								{
									OFFSET 19.846718 0.012767 0.000000
									CHANNELS 3 Yrotation Xrotation Zrotation
									End Site
									{
										OFFSET 14.973145 0.000001 0.000000
									}
								}
							}
						}
					}
					JOINT LeftCollar
					{
						OFFSET -2.894404 0.000001 6.791374
						CHANNELS 3 Yrotation Xrotation Zrotation
						JOINT LeftShoulder
						{
							OFFSET -13.574684 -0.000001 0.000000
							CHANNELS 3 Yrotation Xrotation Zrotation
							JOINT LeftElbow
							{
								OFFSET -23.923903 -0.000002 0.000000
								CHANNELS 3 Yrotation Xrotation Zrotation
								JOINT LeftWrist
								{
									OFFSET -19.846718 0.012763 0.000000
									CHANNELS 3 Yrotation Xrotation Zrotation
									End Site
									{
										OFFSET -14.973145 -0.000001 0.000000
									}
								}
							}
						}
					}
				}
			}
		}
	}
	JOINT RightHip
	{
		OFFSET 9.469263 0.004643 0.045487
		CHANNELS 3 Yrotation Xrotation Zrotation
		JOINT RightKnee
		{
			OFFSET 0.000000 0.002661 -40.478676
			CHANNELS 3 Yrotation Xrotation Zrotation
			JOINT RightAnkle
			{
				OFFSET 0.000000 0.049106 -35.224068
				CHANNELS 3 Yrotation Xrotation Zrotation
				JOINT RightToe
				{
					OFFSET -0.000001 12.539529 -6.151390
					CHANNELS 3 Yrotation Xrotation Zrotation
					End Site
					{
						OFFSET -0.000001 5.044994 -1.291870
					}
				}
			}
		}
	}
	JOINT LeftHip
	{
		OFFSET -9.469263 0.004641 0.045487
		CHANNELS 3 Yrotation Xrotation Zrotation
		JOINT LeftKnee
		{
			OFFSET 0.000000 0.002661 -40.478676
			CHANNELS 3 Yrotation Xrotation Zrotation
			JOINT LeftAnkle
			{
				OFFSET 0.000000 0.049106 -35.224068
				CHANNELS 3 Yrotation Xrotation Zrotation
				JOINT LeftToe
				{
					OFFSET -0.000001 12.539529 -6.151390
					CHANNELS 3 Yrotation Xrotation Zrotation
					End Site
					{
						OFFSET -0.000001 5.044994 -1.291870
					}
				}
			}
		}
	}
}
MOTION
Frames: 12
Frame Time: 0.016667
-39.091866 45.800209 83.150703 -3.147768 -0.361892 -109.666678 -2.122612 -3.273094 0.485381 -0.751911 -1.432607 0.468454 -0.751911 -1.432607 0.468456 -0.562807 -1.075035 0.349561 2.886543 -16.492808 -5.135651 3.528611 5.575167 -8.504336 9.101225 5.144528 -2.744426 46.650523 -21.002531 -11.147055 15.619799 -48.935901 48.318097 -26.818639 37.871650 67.885161 -6.440247 3.826904 -6.149508 -43.686792 -7.221423 12.324536 -43.845095 -54.923180 -18.006525 17.011805 18.224517 -57.969851 5.895126 -8.859263 -12.524316 6.061737 -16.002978 -4.940345 -1.162574 -1.645353 17.017085 -16.284148 21.485286 -3.828841 -10.007755 0.924767 0.613863 -4.409116 -1.522616 1.008616 6.626868 -6.758408 7.641780 -0.806728 0.144650 0.855986 
-38.790516 45.631439 83.118576 -3.058487 -0.309303 -109.756919 -2.129438 -3.205400 0.529998 -0.760162 -1.408041 0.491499 -0.760161 -1.408040 0.491502 -0.568959 -1.056644 0.366859 2.878313 -16.408935 -5.142407 3.507121 5.730240 -8.520851 9.133625 5.154207 -2.757010 46.655410 -21.046646 -11.125813 15.778997 -48.900343 48.194098 -26.809657 37.874502 67.886978 -6.423027 3.865941 -6.119099 -43.661779 -7.148286 12.345477 -43.918553 -54.909134 -17.916455 16.949828 18.205475 -57.967310 5.710448 -8.727251 -12.536556 6.211076 -16.545157 -4.931317 -0.652418 -1.812232 16.952804 -16.961636 21.961326 -4.036878 -9.972399 0.781413 0.668192 -4.445099 -1.564119 0.874194 6.757467 -6.384842 7.717286 -0.673659 0.095218 0.916295 
-38.497032 45.461273 83.085724 -2.978167 -0.266506 -109.862821 -2.125191 -3.145131 0.592931 -0.768034 -1.388955 0.513567 -0.768033 -1.388955 0.513574 -0.574830 -1.042364 0.383415 2.866468 -16.320780 -5.148352 3.478978 5.893116 -8.537256 9.177234 5.128521 -2.756105 46.664928 -21.114106 -11.115550 15.928430 -48.795414 48.100139 -26.809719 37.895641 67.888133 -6.394292 3.854453 -6.109667 -43.666854 -7.094262 12.334565 -43.885304 -54.933565 -17.905479 16.890827 18.263359 -57.994767 5.554486 -8.586108 -12.426574 6.341112 -17.091647 -4.993901 -0.181220 -2.004820 16.921889 -17.618471 22.455184 -4.233622 -9.951462 0.628898 0.652134 -4.454838 -1.589129 0.791303 6.875426 -6.014437 7.922771 -0.564701 0.043020 0.945081 
-38.212631 45.299976 83.052948 -2.906408 -0.223112 -109.963915 -2.113953 -3.092199 0.665722 -0.770625 -1.375762 0.532076 -0.770625 -1.375762 0.532078 -0.576744 -1.032495 0.397305 2.844103 -16.228463 -5.150070 3.432584 6.063307 -8.549736 9.212757 5.119029 -2.750583 46.673418 -21.170004 -11.159354 16.055032 -48.608916 48.054090 -26.767190 37.844196 67.911697 -6.371921 3.846707 -6.108087 -43.697839 -7.089686 12.307959 -43.804568 -54.944733 -17.936473 16.848058 18.377659 -58.031227 5.391834 -8.415167 -12.161096 6.522048 -17.668405 -5.343254 0.220331 -2.217043 17.038475 -18.243114 22.984633 -4.423915 -9.951001 0.481427 0.564386 -4.439401 -1.622374 0.758267 7.009438 -5.667689 8.111165 -0.500121 0.006077 0.928555 
-37.938408 45.139275 83.021729 -2.838198 -0.181917 -110.015961 -2.095396 -3.036720 0.690174 -0.768777 -1.358568 0.540849 -0.768777 -1.358568 0.540850 -0.575354 -1.019610 0.403911 2.809869 -16.156415 -5.141117 3.368859 6.195546 -8.546466 9.237949 5.110854 -2.738917 46.674227 -21.157862 -11.234684 16.099278 -48.497458 48.067801 -26.722977 37.793291 67.925856 -6.362284 3.821405 -6.108403 -43.723739 -7.101680 12.297867 -43.737465 -54.946795 -17.971017 16.827638 18.459537 -58.043378 5.252916 -8.246089 -11.917146 6.704062 -18.217475 -5.793799 0.633358 -2.464349 17.135386 -18.858034 23.549377 -4.647002 -9.953457 0.360973 0.451158 -4.412658 -1.701040 0.843357 7.105032 -5.307032 8.218591 -0.415585 -0.012188 0.939655 
-37.681427 44.977715 82.993134 -2.760704 -0.141856 -110.012867 -2.072301 -2.973064 0.656109 -0.761178 -1.338474 0.545857 -0.761179 -1.338473 0.545860 -0.569663 -1.004538 0.407709 2.771356 -16.101889 -5.129136 3.299056 6.295134 -8.538922 9.254889 5.125614 -2.720902 46.650390 -21.114632 -11.293100 16.174200 -48.405496 48.041099 -26.662948 37.722233 67.956038 -6.368231 3.810538 -6.117759 -43.731621 -7.113320 12.318143 -43.722367 -54.968990 -17.968824 16.820082 18.548967 -58.010197 5.132666 -8.086620 -11.859493 6.869559 -18.718209 -6.158920 0.962840 -2.760124 17.269467 -19.427372 24.139359 -4.856646 -9.916055 0.273637 0.432926 -4.406662 -1.829052 1.015005 7.150357 -4.909227 8.052900 -0.297477 -0.028421 0.960660 
-37.432468 44.809471 82.966370 -2.703410 -0.094762 -109.974529 -2.060149 -2.923313 0.582402 -0.750486 -1.316827 0.547034 -0.750486 -1.316827 0.547034 -0.561661 -0.988294 0.408644 2.732173 -16.060838 -5.113330 3.229996 6.369786 -8.524364 9.267701 5.150988 -2.703909 46.607254 -21.074101 -11.338882 16.281272 -48.312237 47.992188 -26.596721 37.634916 67.998461 -6.384893 3.827732 -6.105562 -43.725054 -7.130846 12.355496 -43.764417 -55.005323 -17.913836 16.816207 18.629160 -57.960015 4.985952 -7.948406 -11.978016 7.041122 -19.217962 -6.475014 1.182236 -3.119758 17.596096 -20.002095 24.758032 -5.110149 -9.865710 0.169222 0.569212 -4.427201 -1.959374 1.068434 7.155501 -4.530049 7.772468 -0.158012 -0.027945 1.037271 
-37.176662 44.650749 82.938797 -2.680618 -0.034437 -109.938861 -2.070909 -2.903845 0.505983 -0.740349 -1.299011 0.545748 -0.740349 -1.299011 0.545748 -0.554078 -0.974921 0.407718 2.696613 -16.020190 -5.095780 3.168309 6.443881 -8.505261 9.278047 5.190819 -2.694443 46.569661 -21.060050 -11.392616 16.359399 -48.221907 47.974562 -26.565227 37.601199 68.007210 -6.395892 3.854624 -6.101354 -43.726294 -7.104990 12.413360 -43.843855 -54.970800 -17.835700 16.798584 18.595405 -57.924075 4.789001 -7.842959 -12.160387 7.231464 -19.725952 -6.771353 1.448880 -3.482282 17.855612 -20.597501 25.391510 -5.418645 -9.847342 0.030207 0.782848 -4.440710 -2.083488 0.916950 7.169854 -4.196469 7.636192 -0.056584 -0.005253 1.109834 
-36.910538 44.506893 82.908005 -2.676768 0.039695 -109.881160 -2.103651 -2.906021 0.403142 -0.731794 -1.286053 0.548054 -0.731794 -1.286053 0.548058 -0.547669 -0.965198 0.409488 2.667700 -15.974501 -5.082717 3.117107 6.527543 -8.492201 9.297086 5.237622 -2.688557 46.546383 -21.085875 -11.439809 16.407914 -48.116815 47.985805 -26.568782 37.626733 67.982116 -6.388359 3.872599 -6.110550 -43.745859 -7.050984 12.469287 -43.890000 -54.947636 -17.775955 16.795468 18.583012 -57.901658 4.554032 -7.757104 -12.438829 7.418536 -20.232745 -6.966390 1.730959 -3.861092 18.032386 -21.192810 26.043549 -5.750587 -9.885159 -0.125886 0.882007 -4.427988 -2.201912 0.774973 7.199895 -3.897552 7.560975 0.018933 0.042255 1.195606 
-36.648277 44.371021 82.872849 -2.648861 0.090601 -109.857330 -2.114143 -2.897986 0.327310 -0.722655 -1.277066 0.554068 -0.722655 -1.277067 0.554068 -0.540812 -0.958457 0.414026 2.643987 -15.922486 -5.072916 3.074089 6.623131 -8.483454 9.316338 5.260184 -2.700624 46.530145 -21.117434 -11.461853 16.452976 -47.986331 48.002665 -26.563745 37.652637 67.975900 -6.375630 3.881530 -6.115836 -43.780276 -7.016522 12.505659 -43.876292 -54.904243 -17.765554 16.774017 18.554390 -57.886079 4.333653 -7.638923 -12.691015 7.595491 -20.776460 -7.156070 1.906453 -4.250076 18.334681 -21.750994 26.702514 -6.047547 -9.909405 -0.253560 0.879277 -4.407770 -2.318355 0.772086 7.283984 -3.589627 7.537813 0.043179 0.077220 1.215005 
-36.395836 44.247608 82.834328 -2.607985 0.146468 -109.848040 -2.121053 -2.888574 0.255439 -0.713895 -1.274010 0.561878 -0.713894 -1.274009 0.561880 -0.534227 -0.956166 0.419904 2.622260 -15.845803 -5.061050 3.034336 6.764596 -8.470585 9.334019 5.297624 -2.730429 46.499303 -21.136072 -11.477502 16.493095 -47.879933 48.026851 -26.552185 37.673408 67.978598 -6.380098 3.921541 -6.114363 -43.815004 -7.012662 12.538262 -43.828139 -54.900968 -17.772764 16.774135 18.661207 -57.871298 4.107088 -7.461187 -12.845298 7.794136 -21.377725 -7.401338 2.089924 -4.633804 18.566435 -22.310290 27.383386 -6.353980 -9.942979 -0.336270 0.808880 -4.373231 -2.473080 0.938215 7.339652 -3.244915 7.426682 0.086329 0.108574 1.252818 
-36.162109 44.132587 82.793678 -2.547018 0.206948 -109.842085 -2.122861 -2.861263 0.190394 -0.708130 -1.270139 0.573820 -0.708130 -1.270139 0.573824 -0.529884 -0.953271 0.428881 2.606579 -15.772963 -5.056343 3.003395 6.899080 -8.468819 9.349071 5.305501 -2.764647 46.453179 -21.140183 -11.469143 16.522842 -47.823670 48.064557 -26.590668 37.756172 67.948709 -6.382071 3.932882 -6.140937 -43.845525 -6.979285 12.563861 -43.778405 -54.909288 -17.791222 16.763840 18.718383 -57.861797 3.889282 -7.242168 -12.900124 8.010708 -21.977488 -7.653412 2.312091 -5.003704 18.630524 -22.854645 28.062949 -6.653202 -9.979075 -0.368973 0.682665 -4.337098 -2.651176 1.152394 7.378322 -2.897247 7.349948 0.136737 0.137135 1.285551 
